<svg xmlns="http://www.w3.org/2000/svg" viewBox="0 0 300.52 271.82"><title>one</title><g id="Layer_2" data-name="Layer 2"><g id="Background_Complete" data-name="Background Complete"><path d="M205.85,172.73a35.42,35.42,0,0,0-15.13-5.21c-2.47-.25-5.17-.18-7.16,1.32a1.43,1.43,0,0,0-.73,1.3,1.62,1.62,0,0,0,.7.9c6.15,4.69,15.46,5.29,22.32,1.69" fill="#e0e0e0"/><path d="M205.46,172.3a73.35,73.35,0,0,1-9.77-8.6,24.73,24.73,0,0,1-6.13-11.33,4.58,4.58,0,0,1,.49-3.79c7.79,6.08,13.91,13.95,15.41,23.72" fill="#e0e0e0"/><path d="M205.77,172.67a35.23,35.23,0,0,1,.18-12.83,17.38,17.38,0,0,1,6.83-10.59c1.35,3.15.77,6.77-.18,10.06a48.86,48.86,0,0,1-6.77,14.27" fill="#e0e0e0"/><path d="M213.41,186.35c-4.64.56-8.68,3-12.14,6.14a23,23,0,0,0-6.94,11.92c4.55-.29,8.41-3.49,11.2-7.09s4.74-7.54,7.81-10.9" fill="#e0e0e0"/><path d="M215.06,188.54a29.93,29.93,0,0,1,3.46-28.31c2.64,9.4,1.67,20-3.46,28.31" fill="#e0e0e0"/><path d="M225.15,200.55a21.68,21.68,0,0,0-20.69,11.91c-.25.51-.48,1.17-.14,1.62a1.55,1.55,0,0,0,1.37.41c4.08-.27,7.7-2.72,10.68-5.51s5.58-6,8.87-8.44" fill="#e0e0e0"/><path d="M224.83,199.9a38.55,38.55,0,0,1-.38-21.53c.75-2.77,2-5.69,4.59-7a.89.89,0,0,1,.7-.13.93.93,0,0,1,.45.52,13,13,0,0,1,1.08,6.17,37.78,37.78,0,0,1-1,6.25c-.8,3.82-1.23,7.93-3.33,11.23a20.83,20.83,0,0,0-1.33,2.46c-.4.84-.4,1.13-.77,1.8" fill="#e0e0e0"/><path d="M251.54,203.88c-2-7.53.12-16.65,4.86-22.82.35-.46.81-.94,1.38-.89.88.08,1.1,1.24,1.06,2.12a41.21,41.21,0,0,1-7.3,21.59" fill="#e0e0e0"/><path d="M253.94,205.52c9.15,2.38,19.64.07,27.24-5.54a22.1,22.1,0,0,0-14.74-1.81c-4.93,1.13-9.43,3.34-12.5,7.35" fill="#e0e0e0"/><path d="M256,200.51c5.13-8.35,14.94-13.8,24.73-14.29-1.13,4-4.4,7.07-8.09,8.94s-7.81,2.68-11.87,3.47c-1.58.3-3.74.64-4.77,1.88" fill="#e0e0e0"/><path d="M252.05,176.2c1.38-4.76,2.78-9.55,3.16-14.48s-.33-10.09-2.89-14.32c-4.78,9.25-5.26,20.07-.42,29.29" fill="#e0e0e0"/><path d="M268.15,168.06c5.59-10.17,17-18.29,28.56-19.43-4.46,11.09-16.61,19.66-28.56,19.43" fill="#e0e0e0"/><path d="M264.63,170.05c8.34,1.27,15.45,6.6,23.25,9.83a10.35,10.35,0,0,0,5.25,1,4.11,4.11,0,0,0,2.58-7.27,11.14,11.14,0,0,0-3.82-2.32c-8.49-3.54-17.6-3.62-26.54-1.48" fill="#e0e0e0"/><path d="M259.8,175.9c1.89.54,2.54,1.52,4,2.79a43.57,43.57,0,0,0,17.63,9.06c.67.16,1.56.23,1.89-.38s-.08-1.17-.45-1.65a24.23,24.23,0,0,0-10.65-7.22c-4.07-1.52-7.59-3.34-12.45-2.95" fill="#e0e0e0"/><path d="M254.36,140.56a33.35,33.35,0,0,0,25.57,8.7,1.78,1.78,0,0,0,1.17-.42c.64-.7-.13-1.78-.88-2.36-7.52-5.87-16.63-8.3-25.86-5.92" fill="#e0e0e0"/><path d="M260.81,138.19a35.65,35.65,0,0,1,31.92-5.26,25.39,25.39,0,0,1-15.21,6.68,48.1,48.1,0,0,1-16.71-1.42" fill="#e0e0e0"/><path d="M258.25,122c-.74-7.5-.26-13.43-.78-21,0-.6-.17-1.32-.74-1.54-.78-.3-1.44.66-1.69,1.46a24,24,0,0,0,3.2,20.89" fill="#e0e0e0"/><path d="M257.71,122.78a44.12,44.12,0,0,0,12.43-12.08c2.46-3.36,4.53-7.39,4-11.51a11.89,11.89,0,0,0-9,4.45,25,25,0,0,0-4.57,9.2c-1,3.3-1.69,6.7-2.86,9.94" fill="#e0e0e0"/><path d="M269.92,119.39a100.28,100.28,0,0,0,30.6-18c-3.65-1.47-7.84-.59-11.49.88-8.35,3.37-15.17,9.06-19.27,17.08" fill="#e0e0e0"/><path d="M261.14,126.89c5.65.62,11.39,1,17,.08s10.72-3.1,15.86-5.27a1.84,1.84,0,0,0,1.08-.82,1.23,1.23,0,0,0-.38-1.35,3.35,3.35,0,0,0-1.36-.64c-5.59-1.56-11.63-.83-17.14,1a79.31,79.31,0,0,0-15.05,7" fill="#e0e0e0"/><path d="M228.89,140.81c-3.86-7.77-3.6-16.85-.28-24.87,2.35,3.57,2.63,8.12,2.21,12.37s-1.73,8.62-1.81,12.89" fill="#e0e0e0"/><path d="M213.49,133.05a34.74,34.74,0,0,0-25.78,11c4.81.76,9.75-.48,14.12-2.61a72.37,72.37,0,0,0,12.1-8.1" fill="#e0e0e0"/><path d="M203.14,129.59c-4.7-.38-9.23-1-13.76.42a16.56,16.56,0,0,0-10.49,8.89,24.8,24.8,0,0,0,12.9-2.43,73.79,73.79,0,0,0,11.35-6.88" fill="#e0e0e0"/><path d="M218.47,129.75c-4.24-2.78-8.58-5.6-13.52-6.75s-10.64-.3-14.08,3.41c4,2.35,8.84,2.62,13.46,2.62s10.3-.06,14.67,1.49" fill="#e0e0e0"/><path d="M218.49,130c-7.24-7.11-10-19.88-7.07-29.6a45.11,45.11,0,0,1,7.07,29.6" fill="#e0e0e0"/><path d="M238.4,109.83c1.36-3.17,2.32-6.51,3.55-9.74a27.89,27.89,0,0,1,5.06-9,13.33,13.33,0,0,1,9-4.65,36.13,36.13,0,0,1-17.4,23.41" fill="#e0e0e0"/><path d="M234.8,114c-2.26-3.11-4.87-7.33-7.94-9.66s-7.05-3.72-10.79-2.83A25.14,25.14,0,0,0,234.8,114" fill="#e0e0e0"/><path d="M235.52,110.09A53.22,53.22,0,0,1,232,98.52a18,18,0,0,1,1.81-11.76c4,7.51,5.25,15.58,2,23.41" fill="#e0e0e0"/><path d="M238.44,86.76c2.25-7.44,9.07-12.93,16.43-15.44a6.07,6.07,0,0,1,2.88-.43,2.49,2.49,0,0,1,2.12,1.77c.27,1.26-.78,2.4-1.76,3.24a55.94,55.94,0,0,1-19.67,10.86" fill="#e0e0e0"/><path d="M238.52,80.67c.28-4.8.58-9.67,2.14-14.22s4.58-8.81,9-10.81c.75,4.85-1.39,9.68-4,13.85S240,77.6,238.4,82.26" fill="#e0e0e0"/><path d="M238.4,84c-1.86-5.43-2.05-12.32-5.3-17-2.27-3.3-5.91-5.56-7.87-9.06a13.77,13.77,0,0,0,.46,10.28,29.63,29.63,0,0,0,6,8.61c2.4,2.57,4.46,4.5,6.7,7.22" fill="#e0e0e0"/><path d="M238.44,243.8c-.15,0-.27-36.21-.28-80.85s.09-80.86.24-80.86.27,36.19.28,80.86S238.58,243.8,238.44,243.8Z" fill="#e0e0e0"/><path d="M270.07,135.35a6.63,6.63,0,0,1-1.36.51L265,137.13c-3.16,1.07-7.5,2.63-12.21,4.56s-9.06,3.63-11.57,5.79a8.48,8.48,0,0,0-2.32,3.08c-.36.85-.42,1.37-.47,1.36s0-.13,0-.38a6.76,6.76,0,0,1,.27-1,8.09,8.09,0,0,1,2.27-3.28,20.3,20.3,0,0,1,5-3.12c2-.94,4.23-1.91,6.59-2.88,4.72-1.94,9.1-3.45,12.29-4.43,1.6-.5,2.9-.87,3.8-1.11A8.28,8.28,0,0,1,270.07,135.35Z" fill="#e0e0e0"/><path d="M280.44,109.88a2.82,2.82,0,0,1-.38.41l-1.16,1.09-4.34,3.94-14.43,12.85c-5.64,5-10.51,9.81-13.88,13.42-1.69,1.8-3,3.29-3.93,4.33-.42.49-.77.88-1,1.2a2.59,2.59,0,0,1-.39.4,2.29,2.29,0,0,1,.31-.46c.22-.3.54-.73,1-1.27.87-1.08,2.16-2.61,3.82-4.45a180.61,180.61,0,0,1,13.8-13.56c5.65-5,10.8-9.5,14.54-12.74l4.44-3.81,1.23-1A2.81,2.81,0,0,1,280.44,109.88Z" fill="#e0e0e0"/><path d="M254.05,133.27c-.15-.07,1-2.78,2.2-6.22s1.74-6.34,1.89-6.31a21.52,21.52,0,0,1-1.4,6.48,43.11,43.11,0,0,1-1.75,4.35A7,7,0,0,1,254.05,133.27Z" fill="#e0e0e0"/><path d="M238.47,155.18a6.57,6.57,0,0,1-.87-1l-2.22-2.86c-1.87-2.41-4.46-5.75-7.35-9.39s-5.56-6.93-7.49-9.29l-2.27-2.82a6.45,6.45,0,0,1-.78-1.07,7.12,7.12,0,0,1,.94.94c.58.63,1.4,1.55,2.4,2.71,2,2.31,4.71,5.55,7.61,9.2s5.44,7,7.23,9.5c.9,1.24,1.61,2.25,2.09,3A6.23,6.23,0,0,1,238.47,155.18Z" fill="#e0e0e0"/><path d="M231.53,146.28a12.91,12.91,0,0,1-2.9-5.44,15.4,15.4,0,0,1-.66-5.49l.23,0c-.11.42-.18.64-.22.63s0-.24,0-.67l.23,0a24.5,24.5,0,0,0,.93,5.34A40.31,40.31,0,0,0,231.53,146.28Z" fill="#e0e0e0"/><path d="M222.58,135a9.49,9.49,0,0,0-2-1.18,13.56,13.56,0,0,0-5.64-.44,34.5,34.5,0,0,0-5.67.91,17,17,0,0,1-2.33.56,8.36,8.36,0,0,1,2.23-.92,26.61,26.61,0,0,1,5.73-1.08,12.36,12.36,0,0,1,5.82.63A3.66,3.66,0,0,1,222.58,135Z" fill="#e0e0e0"/><path d="M220.45,132.28c0,.08-1.18-.47-3.11-1.13a32,32,0,0,0-7.75-1.6,31.67,31.67,0,0,0-7.91.41c-2,.35-3.22.73-3.24.64a3.19,3.19,0,0,1,.82-.35,19.84,19.84,0,0,1,2.35-.66,27.65,27.65,0,0,1,15.86,1.21,19.55,19.55,0,0,1,2.22,1A2.75,2.75,0,0,1,220.45,132.28Z" fill="#e0e0e0"/><path d="M238.4,120.74a63.88,63.88,0,0,1-2.27-7.88,64.87,64.87,0,0,1-1.76-8,63.36,63.36,0,0,1,2.27,7.87A64.79,64.79,0,0,1,238.4,120.74Z" fill="#e0e0e0"/><path d="M238.54,120.74A37.29,37.29,0,0,0,236,116a20.26,20.26,0,0,0-3.7-3.81,3.4,3.4,0,0,1,1.43.73,11.58,11.58,0,0,1,2.7,2.78A10.37,10.37,0,0,1,238.54,120.74Z" fill="#e0e0e0"/><path d="M238.44,224.5c-.06,0-.17-.87-.58-2.41a34.3,34.3,0,0,0-2.41-6.27c-2.51-5.11-7.06-11.59-12.84-18.08-2.87-3.28-5.65-6.36-8-9.32a65.65,65.65,0,0,1-5.72-8.26A39.78,39.78,0,0,1,206,174c-.27-.75-.46-1.34-.57-1.75a4.57,4.57,0,0,1-.15-.62s.31.83.91,2.3a45.72,45.72,0,0,0,3,6,71,71,0,0,0,5.78,8.14c2.37,2.92,5.15,6,8,9.27,5.8,6.51,10.34,13.08,12.78,18.27a31.21,31.21,0,0,1,2.28,6.38,17.37,17.37,0,0,1,.32,1.82A5.07,5.07,0,0,1,238.44,224.5Z" fill="#e0e0e0"/><path d="M267,192.21a13.81,13.81,0,0,1-1.49.84,31.57,31.57,0,0,0-3.89,2.57,43.68,43.68,0,0,0-5.1,4.65c-1.8,1.89-3.64,4.09-5.52,6.45-3.77,4.72-7.29,8.9-9.4,12.24-1.07,1.65-1.85,3-2.36,4a15,15,0,0,1-.82,1.51,1.33,1.33,0,0,1,.13-.43c.12-.27.27-.67.51-1.17a36.73,36.73,0,0,1,2.23-4.14c2-3.42,5.54-7.65,9.3-12.37,1.88-2.36,3.75-4.56,5.58-6.45a41.08,41.08,0,0,1,5.23-4.62,27.57,27.57,0,0,1,4-2.45c.5-.25.9-.4,1.17-.52A1.3,1.3,0,0,1,267,192.21Z" fill="#e0e0e0"/><path d="M267.58,202.68a20,20,0,0,1-3.16.46,41.63,41.63,0,0,0-7.51,1.48,22.53,22.53,0,0,0-6.73,3.53c-1.55,1.2-2.28,2.19-2.35,2.13s.12-.29.47-.73a12.43,12.43,0,0,1,1.65-1.69,20.43,20.43,0,0,1,6.8-3.74,34,34,0,0,1,7.63-1.35A17.42,17.42,0,0,1,267.58,202.68Z" fill="#e0e0e0"/><path d="M248.75,209.13c-.16-.09,1.26-2.27,2.37-5.2s1.28-5.56,1.47-5.53a5.14,5.14,0,0,1-.05,1.7,18.57,18.57,0,0,1-.93,4,19.91,19.91,0,0,1-1.83,3.68C249.21,208.66,248.81,209.17,248.75,209.13Z" fill="#e0e0e0"/><path d="M276.28,164.08a2.16,2.16,0,0,1-.5.27l-1.49.68c-.65.28-1.45.63-2.34,1.1s-1.94.94-3,1.59l-1.73,1c-.6.34-1.19.75-1.82,1.14-1.28.78-2.55,1.73-3.91,2.7a66.92,66.92,0,0,0-15.07,15.59c-.92,1.39-1.83,2.7-2.56,4-.37.64-.76,1.25-1.08,1.86l-.93,1.76c-.61,1.11-1.05,2.17-1.48,3.08s-.77,1.71-1,2.37-.46,1.11-.62,1.51a4.06,4.06,0,0,1-.25.52,1.93,1.93,0,0,1,.15-.56l.53-1.54a25.11,25.11,0,0,1,1-2.42c.41-.92.83-2,1.42-3.13l.9-1.78c.32-.62.7-1.24,1.07-1.89.71-1.32,1.61-2.64,2.53-4.06a71.74,71.74,0,0,1,6.92-8.49,70.7,70.7,0,0,1,8.26-7.21c1.38-1,2.67-1.91,4-2.67.64-.39,1.25-.79,1.85-1.13l1.76-1c1.1-.64,2.17-1.09,3.08-1.53a24.16,24.16,0,0,1,2.38-1l1.53-.58A3.69,3.69,0,0,1,276.28,164.08Z" fill="#e0e0e0"/><path d="M253.66,179.24a3.61,3.61,0,0,1,1.24-1.85,7.84,7.84,0,0,1,5-1.92,13.6,13.6,0,0,1,5.28,1,7.23,7.23,0,0,1,2,1,13.35,13.35,0,0,1-2.11-.62,15.69,15.69,0,0,0-5.14-.86,8.14,8.14,0,0,0-4.79,1.68A15.31,15.31,0,0,0,253.66,179.24Z" fill="#e0e0e0"/><path d="M250.28,182.73a19.22,19.22,0,0,0,1.42-4.63,19.1,19.1,0,0,0-.32-4.83c.06,0,.34.47.59,1.35a9.62,9.62,0,0,1,.25,3.54,9.74,9.74,0,0,1-1.06,3.4C250.72,182.36,250.33,182.77,250.28,182.73Z" fill="#e0e0e0"/><path d="M213.43,229.68c.78,13.84,4.95,27.91,11.36,42.14h27.89c6.12-14.09,10-28.14,10.69-42.14Z" fill="#e0e0e0"/><path d="M258.85,252.07c0,.15-9.18.26-20.51.26s-20.5-.11-20.5-.26,9.17-.26,20.5-.26S258.85,251.93,258.85,252.07Z" fill="#fafafa"/><path d="M258.22,257.08c0,.15-8.6.27-19.22.27s-19.22-.12-19.22-.27,8.6-.26,19.22-.26S258.22,256.94,258.22,257.08Z" fill="#fafafa"/><path d="M225.24,238.77a38.24,38.24,0,0,1,.27,6.42,38.42,38.42,0,0,1-.27,6.43,40.5,40.5,0,0,1-.26-6.43A40.32,40.32,0,0,1,225.24,238.77Z" fill="#fafafa"/><path d="M240.18,238.77a41.09,41.09,0,0,1,.27,6.65,41.09,41.09,0,0,1-.27,6.65,43.32,43.32,0,0,1-.26-6.65A43.32,43.32,0,0,1,240.18,238.77Z" fill="#fafafa"/><path d="M254.21,238.66a43.41,43.41,0,0,1,.26,6.78,43.41,43.41,0,0,1-.26,6.78,44.93,44.93,0,0,1-.26-6.78A44.93,44.93,0,0,1,254.21,238.66Z" fill="#fafafa"/><path d="M262.48,238.77c0,.14-10.77.26-24.05.26s-24.05-.12-24.05-.26,10.77-.26,24.05-.26S262.48,238.62,262.48,238.77Z" fill="#fafafa"/></g><g id="Plant"><path d="M20,45.46c11.8,6.11,20.84,16.63,27.34,28.21S58.06,98,62.21,110.58l3.63,65.07C52.12,152.3,41.1,124.86,38.13,97.94l9.13-.82C41.14,96.19,36,91.75,32.73,86.49s-5-11.33-6.6-17.3l11.14,1.66A41.35,41.35,0,0,1,20,45.46Z" fill="#455a64"/><g opacity="0.3"><path d="M20,45.46c11.8,6.11,20.84,16.63,27.34,28.21S58.06,98,62.21,110.58l3.63,65.07C52.12,152.3,41.1,124.86,38.13,97.94l9.13-.82C41.14,96.19,36,91.75,32.73,86.49s-5-11.33-6.6-17.3l11.14,1.66A41.35,41.35,0,0,1,20,45.46Z"/></g><path d="M67.87,190.9s29.79-35.66,29.45-69.69h-12s13.07-8.6,12-13.41-1.38-23-1.38-23l-11,2.75s8.25-4.12,9.28-10.65-2.4-36.79-2.4-36.79S78.41,54.17,74.28,68.61s-15,31.28-11.77,75.29S67.87,190.9,67.87,190.9Z" fill="#455a64"/><path d="M52.77,194.26s-32.27-21.5-39.44-48.94L23,142.69s-12.39-4.05-12.61-8.14-3.93-18.83-3.93-18.83l9.45-.19S8.37,114,6.11,109,0,78.89,0,78.89,13.86,87.29,20.34,98s18.87,21.89,25.94,58S52.77,194.26,52.77,194.26Z" fill="#455a64"/><path d="M83.68,71.16a2.18,2.18,0,0,1-.05.38l-.21,1.11c-.2,1-.48,2.42-.85,4.25s-.83,4.1-1.32,6.72-1.09,5.62-1.67,8.93c-1.23,6.62-2.54,14.52-3.89,23.31s-2.64,18.49-3.84,28.69S69.77,164.49,69,173.36,67.82,190.22,67.51,197c-.19,3.35-.3,6.4-.41,9.07s-.2,5-.24,6.85-.12,3.31-.15,4.33c0,.47,0,.85,0,1.13a2.28,2.28,0,0,1,0,.38,2.79,2.79,0,0,1,0-.38V217.2c0-1,0-2.48.05-4.34s.07-4.18.16-6.85.16-5.72.33-9.08c.27-6.73.76-14.73,1.42-23.61s1.61-18.62,2.78-28.83,2.53-19.9,3.87-28.7,2.73-16.7,4-23.31c.6-3.31,1.22-6.29,1.74-8.91s1-4.88,1.42-6.71.72-3.24.94-4.24l.25-1.09A2.2,2.2,0,0,1,83.68,71.16Z" fill="#263238"/><path d="M72,212.73s27.26-30.93,35.72-49.63l-6.39-2.73c4.63.77,9.38-1.22,13-4.25s6.23-7,8.81-10.91l-8.41-1.42a31.36,31.36,0,0,0,18.39-14.25c-9.94,1.63-18.92,7.09-26.33,13.91a131.55,131.55,0,0,0-16,18.48,62.65,62.65,0,0,0-6.19,10.19C80.05,181.59,72,201.37,72,212.73Z" fill="#455a64"/><path d="M12.9,96.89a2,2,0,0,1,.18.29l.46.88c.42.8,1,1.94,1.75,3.38,1.52,3,3.65,7.24,6.2,12.58S27,125.78,30.11,133s6.41,15.14,9.68,23.56,6.15,16.54,8.69,23.94,4.65,14.14,6.35,19.81,3,10.28,3.88,13.47c.42,1.58.75,2.81,1,3.69l.25,1a1.42,1.42,0,0,1,.06.33,1.41,1.41,0,0,1-.11-.32c-.08-.24-.18-.55-.3-.95-.25-.86-.61-2.09-1.08-3.65-.91-3.18-2.28-7.77-4-13.42S50.55,188,48,180.61s-5.47-15.49-8.72-23.91-6.55-16.37-9.63-23.56-6-13.6-8.52-19-4.58-9.68-6-12.65c-.71-1.46-1.27-2.61-1.66-3.43-.18-.37-.32-.67-.42-.89A1.76,1.76,0,0,1,12.9,96.89Z" fill="#263238"/><path d="M69.69,226a2.91,2.91,0,0,1,0-.59c0-.43.09-1,.16-1.65s.18-1.6.34-2.62.31-2.17.56-3.44c.44-2.55,1.11-5.56,2-8.87s2-6.9,3.4-10.6,2.94-7.13,4.45-10.2,3-5.76,4.38-8c.65-1.11,1.3-2.09,1.85-3s1.06-1.6,1.48-2.18l1-1.36a2.52,2.52,0,0,1,.37-.45,3.35,3.35,0,0,1-.28.51c-.24.37-.53.84-.89,1.41s-.87,1.35-1.4,2.23-1.16,1.86-1.79,3c-1.3,2.23-2.76,4.93-4.26,8s-3,6.5-4.39,10.18-2.51,7.25-3.43,10.54-1.59,6.28-2.08,8.81c-.27,1.26-.45,2.41-.63,3.42s-.32,1.88-.43,2.59-.19,1.21-.26,1.65A2.64,2.64,0,0,1,69.69,226Z" fill="#263238"/><rect x="33.72" y="218.71" width="59.66" height="12.17" fill="#ff725e"/><polygon points="87.7 230.88 81.25 271.82 45.2 271.82 39.18 230.88 87.7 230.88" fill="#ff725e"/><path d="M37.38,230.88c0-.14,11.29-.26,25.21-.26s25.21.12,25.21.26-11.29.26-25.21.26S37.38,231,37.38,230.88Z" fill="#263238"/></g><g id="Character"><path d="M137.1,194.42s71.71-37.36,87.26-16.76-15.61,36.81-21.64,40.45-66.92,24.32-66.92,24.32l-16.07-17.14Z" fill="#263238"/><path d="M165.38,214.4,194,229.8l26.13,5.66a3.33,3.33,0,0,1,2.49,4.18h0a3.32,3.32,0,0,1-2.09,2.21c-6.49,2.26-30.38,10.45-32.41,9.2-2.35-1.44-31.24-14.24-31.24-14.24Z" fill="#ff725e"/><g opacity="0.6"><path d="M222.59,239.64l-36.45,10.42,1.22.62a5.06,5.06,0,0,0,3.44.42c3.09-.74,11.59-3,29.65-9.16a3.34,3.34,0,0,0,2.14-2.3Z" fill="#fff"/></g><g opacity="0.6"><path d="M179.83,239.37a2,2,0,0,1,2.59.7,1.92,1.92,0,0,1-.67,2.57,2.11,2.11,0,0,1-2.74-.75,2,2,0,0,1,1-2.61" fill="#fff"/></g><path d="M206.58,239.81c.16-.12-1-1.55-1-3.68s1.22-3.53,1.06-3.66-.47.19-.91.82a5.22,5.22,0,0,0-.86,2.83,5.15,5.15,0,0,0,.78,2.84C206.11,239.61,206.52,239.87,206.58,239.81Z" fill="#263238"/><path d="M211.5,239.72c.2-.07-.27-1.48.06-3.2s1.24-2.87,1.08-3-1.43.92-1.78,2.89S211.35,239.83,211.5,239.72Z" fill="#263238"/><path d="M199.66,241.12c.2-.07-.53-2.23-.24-4.94s1.38-4.7,1.18-4.81-1.62,1.82-1.89,4.74S199.51,241.21,199.66,241.12Z" fill="#263238"/><path d="M190.58,237.16c.21,0,.35-1.93,1.34-4s2.32-3.52,2.18-3.67-1.8,1.08-2.83,3.37S190.39,237.18,190.58,237.16Z" fill="#263238"/><path d="M182.07,232.85c.21,0,.07-2.1,1.28-4.25s3-3.16,2.92-3.34-.56.05-1.28.52a7.24,7.24,0,0,0-3.16,5.71C181.82,232.35,182,232.86,182.07,232.85Z" fill="#263238"/><path d="M181.71,227.83a2.77,2.77,0,0,0-1.07-.59,8.34,8.34,0,0,0-3.31-.59,3.74,3.74,0,0,0-2.35.62,1.33,1.33,0,0,0-.42,1.48,2.15,2.15,0,0,0,1.08,1.12,4.68,4.68,0,0,0,5.74-1.7,5.44,5.44,0,0,0-.11-6.07,1.94,1.94,0,0,0-1.36-.79,1.32,1.32,0,0,0-1.24.91,4.65,4.65,0,0,0,0,2.41,9.42,9.42,0,0,0,1.24,3.12c.43.67.74,1,.78.95a14.68,14.68,0,0,1-1.52-4.16,4.26,4.26,0,0,1,0-2.1.69.69,0,0,1,.67-.5,1.3,1.3,0,0,1,.87.57,4.89,4.89,0,0,1,0,5.27,4.1,4.1,0,0,1-4.86,1.51,1.65,1.65,0,0,1-.78-.76.72.72,0,0,1,.22-.81,3.42,3.42,0,0,1,2-.57A12.73,12.73,0,0,1,181.71,227.83Z" fill="#263238"/><path d="M175.63,218.07s-67.57-40.94-76.71-46c-7.84-4.36-32.64-14-41.38,9.75s38.32,58.85,38.32,58.85l39.94,1.78,13.33-5.09L164.26,242Z" fill="#263238"/><path d="M128.12,243.26,97.83,255,76.54,271.14a3.33,3.33,0,0,1-4.79-.82h0a3.33,3.33,0,0,1-.32-3c2.5-6.4,11.82-29.87,14.08-30.61,2.62-.85,31.13-14.47,31.13-14.47Z" fill="#ff725e"/><g opacity="0.6"><path d="M71.75,270.32l15.79-34.47-1.28.52a5,5,0,0,0-2.54,2.34c-1.46,2.83-5.29,10.73-12.33,28.49a3.34,3.34,0,0,0,.36,3.12Z" fill="#fff"/></g><g opacity="0.6"><path d="M99.76,238a2,2,0,0,1-2.22,1.51A2,2,0,0,1,96,237.33a2.13,2.13,0,0,1,2.36-1.59,2,2,0,0,1,1.33,2.45" fill="#fff"/></g><path d="M82,258c0,.2,1.84.23,3.42,1.67s1.89,3.22,2.09,3.18.16-.48,0-1.22a5.32,5.32,0,0,0-4.26-3.76C82.49,257.82,82,258,82,258Z" fill="#263238"/><path d="M78.9,261.84c-.07.19,1.3.75,2.38,2.12s1.39,2.81,1.59,2.78.23-1.69-1-3.23S78.91,261.65,78.9,261.84Z" fill="#263238"/><path d="M85.54,251.93c-.08.2,2,1,3.91,3s2.67,4.1,2.87,4S92,256.57,90,254.47,85.56,251.75,85.54,251.93Z" fill="#263238"/><path d="M94.45,247.6c-.15.16,1.23,1.53,2.2,3.66s1.16,4.05,1.37,4,.34-2.06-.72-4.33S94.55,247.45,94.45,247.6Z" fill="#263238"/><path d="M103.25,243.94c-.13.17,1.56,1.42,2.39,3.74s.44,4.36.65,4.39.32-.45.44-1.31a7.28,7.28,0,0,0-2.28-6.11C103.8,244.08,103.3,243.87,103.25,243.94Z" fill="#263238"/><path d="M107.3,246.94a2.75,2.75,0,0,0,1.15-.43,8.6,8.6,0,0,0,2.6-2.13,3.77,3.77,0,0,0,1-2.19,1.32,1.32,0,0,0-.85-1.28,2.23,2.23,0,0,0-1.55.08,4.72,4.72,0,0,0-2.45,5.48,5.47,5.47,0,0,0,4.69,3.86,1.92,1.92,0,0,0,1.49-.52,1.32,1.32,0,0,0,.11-1.53,4.64,4.64,0,0,0-1.84-1.56,9.4,9.4,0,0,0-3.18-1.08,2.64,2.64,0,0,0-1.23,0,14.51,14.51,0,0,1,4.16,1.55,4.39,4.39,0,0,1,1.57,1.39.7.7,0,0,1-.06.84,1.29,1.29,0,0,1-1,.28,4.86,4.86,0,0,1-4-3.39,4.1,4.1,0,0,1,2-4.68,1.59,1.59,0,0,1,1.08-.1.71.71,0,0,1,.48.7,3.41,3.41,0,0,1-.85,1.87A12.74,12.74,0,0,1,107.3,246.94Z" fill="#263238"/><path d="M115,250.82c.85-.44,35.05-14.36,35.05-14.36l-34-16.84L95.52,230.23Z" fill="#263238"/><path d="M72.67,209.66l.47.14,1.35.45L79.66,212l19,6.67,62.65,22.11,3,.93-.31.14L175.41,218l.09.32-39.4-24.1-11.34-7-3-1.89-.77-.49c-.17-.11-.26-.17-.25-.18l.27.14.8.46,3,1.82,11.42,6.86,39.5,24,.19.11-.09.2c-3.54,7.47-7.38,15.54-11.36,23.94l-.1.21-.21-.07-3-.94c-1.57-.45-3.07-1-4.58-1.55l-4.5-1.6L143.28,235l-16.61-5.92L98.54,219.05l-19-6.82-5.14-1.88-1.33-.5Z" fill="#455a64"/><path d="M115,250.82a10.19,10.19,0,0,1-1.27-1.21c-.84-.87-2-2-3.32-3.43-2.8-2.91-6.63-7-10.83-11.45l-4.23-4.53-.23-.25.3-.14,10.38-5,3-1.42a6.65,6.65,0,0,1,1.11-.46,5.62,5.62,0,0,1-1,.61l-3,1.55-10.3,5.2.07-.4,4.25,4.52c4.21,4.49,8,8.58,10.71,11.55l3.21,3.55A10.73,10.73,0,0,1,115,250.82Z" fill="#455a64"/><path d="M184,184.5c0,.14-8.36,3.79-18.8,8.17s-18.94,7.82-19,7.68,8.36-3.78,18.8-8.16S183.9,184.37,184,184.5Z" fill="#455a64"/><path d="M132,81.47c-.71,0-25.38-.24-30.36,4.74s-15.32,81.25-15.32,81.25c5.32,1,8.78,3,12,4.58l41.93,24.46,18.15-9.44a4.55,4.55,0,0,0,1.28-6.92h0l24.15-87.29A44.58,44.58,0,0,0,172,86.45C164.92,83.84,132,81.47,132,81.47Z" fill="#455a64"/><path d="M175.63,89.57s7.42,1.64,10.26,6.22c6.66,10.73,27.12,48.84,30.56,58,3.64,9.67-.27,15.17-2.9,19.25-2.83,4.39-18.38,4.38-25.43-3.16-3-3.23-19.86-18.51-19.86-18.51Z" fill="#455a64"/><path d="M184.07,103.72a5.68,5.68,0,0,1-.29.75c-.22.53-.52,1.23-.9,2.12-.75,1.85-1.8,4.54-3,7.9-2.42,6.72-5.38,16.14-8.52,26.58s-5.87,19.89-7.9,26.79c-1,3.43-1.86,6.19-2.47,8.1l-.72,2.19a5.34,5.34,0,0,1-.28.75,3.6,3.6,0,0,1,.18-.78c.16-.56.37-1.29.63-2.22.56-2,1.34-4.74,2.31-8.14,1.94-6.88,4.62-16.39,7.75-26.84s6.16-19.85,8.67-26.56c1.25-3.35,2.35-6,3.17-7.85l1-2.08A3.56,3.56,0,0,1,184.07,103.72Z" fill="#263238"/><path d="M102.74,85.34s-7.79,4.43-10.64,7S59.81,136.93,56,150c-2.19,7.57,6.16,23.26,15.16,22.5,11.77-1,55.93-17.93,55.93-17.93L117.22,133l-25,4,18.15-18.24-6.77-33.91" fill="#455a64"/><path d="M207.48,149.29A2.33,2.33,0,0,1,207,149l-1.22-.84L201.39,145c-3.72-2.71-8.84-6.48-14.48-10.66l-3.77-2.81.35-.05c-3.59,4.69-6.79,8.77-9.12,11.66a35.26,35.26,0,0,1-3.89,4.5l3.63-4.7,9-11.77.15-.2.2.15,3.78,2.8c5.64,4.19,10.72,8,14.39,10.79l4.33,3.31,1.16.93C207.36,149.15,207.49,149.27,207.48,149.29Z" fill="#263238"/><polygon points="137.59 125.39 117.79 134.26 125.69 151.43 138.07 143.25 137.59 125.39" fill="#b2655f"/><path d="M156.3,127.07l13.25-9a2.49,2.49,0,0,1,1.59-.41l17.32,1.48a1.32,1.32,0,0,1,1.22,1.35,2.38,2.38,0,0,1-.73,1.84L160.82,141.9l-21-3.33Z" fill="#e0e0e0"/><path d="M137.59,125.39s7.15-5.3,8.83-5.59,9.23-.26,9.23-.26l6.36,3.63-3.94,2.67c-2.73-.6-3.51-1.66-3.51-1.66l-4.4.29Z" fill="#b2655f"/><path d="M145.62,123.08,156.94,127l16.23,2.29a3.53,3.53,0,0,1-3.23,3.64c-2,.21-5.39.45-5.39.45s-.82,3-3.35,3.65a8.51,8.51,0,0,1-2.44,2.89,2.13,2.13,0,0,1-.5.21c-1.56.46-4.67,4.69-6.75,5.26s-13.44-2.11-13.44-2.11l-.48-17.86Z" fill="#b2655f"/><path d="M149,132.31c0-.05.89.19,2.33.48a46.92,46.92,0,0,0,5.68.74,41.49,41.49,0,0,0,5.73,0c1.47-.1,2.37-.23,2.38-.18a3,3,0,0,1-.63.15c-.4.08-1,.17-1.73.25a35.09,35.09,0,0,1-5.77.1,35.67,35.67,0,0,1-5.7-.84c-.72-.17-1.3-.33-1.69-.46A2.91,2.91,0,0,1,149,132.31Z" fill="#8e4842"/><path d="M151.14,136.94a2.49,2.49,0,0,1-.11,1.11,2.35,2.35,0,0,1-.61,1.1,1.93,1.93,0,0,1-1.47.48,3.67,3.67,0,0,1-1.46-.42c-.41-.2-.75-.42-1.05-.59-.58-.34-1-.48-1-.52a2.33,2.33,0,0,1,1.06.33,6.71,6.71,0,0,0,2.43.89,1.68,1.68,0,0,0,1.26-.38,2.38,2.38,0,0,0,.59-.95A9.56,9.56,0,0,1,151.14,136.94Z" fill="#8e4842"/><path d="M159.49,138.05a4.69,4.69,0,0,1-1.24.31,27.77,27.77,0,0,1-3,.38,29.76,29.76,0,0,1-3.07,0,4.66,4.66,0,0,1-1.27-.15c0-.09,1.94,0,4.32-.2S159.47,138,159.49,138.05Z" fill="#8e4842"/><path d="M150.92,142.74a3.12,3.12,0,0,1-1.86.81,3.16,3.16,0,0,1-2-.21c0-.09.9.08,2-.09S150.88,142.66,150.92,142.74Z" fill="#8e4842"/><path d="M155,142.53c0,.09-.53.23-1.21.32a2.66,2.66,0,0,1-1.26,0c0-.09.53-.23,1.21-.32A2.82,2.82,0,0,1,155,142.53Z" fill="#8e4842"/><path d="M156.94,127a32,32,0,0,1-5.3-1.77c-1.43-.56-2.72-1.1-3.64-1.51a7.73,7.73,0,0,1-1.45-.76,11.18,11.18,0,0,1,1.53.55l3.68,1.43,3.67,1.43A14.66,14.66,0,0,1,156.94,127Z" fill="#8e4842"/><path d="M173.51,131.05s-1.25-.43.1-2.41,5.13.42,5.13.42l4.83,2.88s1.08,2.51-.26,3.17l-1,1.23s1.89,1.9,1.13,3.58a2.59,2.59,0,0,1-2.63,1.43s.22,3.39-.88,4.69a3.64,3.64,0,0,1-2.1,1.41,6,6,0,0,1-4.17,3.64c-3.24.82-4.94.88-5.82-.48a14.89,14.89,0,0,1-1.43-3.1s-6.95-3.64-7.1-5.49.17-2,.17-2a3.47,3.47,0,0,1,.14-2.67c.7-1.13,3.46-.14,3.46-.14l8.87,2.08s-7.1-3.34-7.94-4.43.06-2.42,2.91-2.08,11.45,2,11.45,2a2.58,2.58,0,0,0-1-1.1c-.57-.24-2.35-1.28-2.35-1.28Z" fill="#b2655f"/><path d="M175.63,144.49c0,.08-3.62-.84-8-2.05s-8-2.27-7.95-2.35,3.62.83,8,2S175.65,144.4,175.63,144.49Z" fill="#8e4842"/><path d="M171.4,149.32a10.53,10.53,0,0,1-2.59-.67A18.81,18.81,0,0,1,167,148a3.64,3.64,0,0,1-.51-.28.34.34,0,0,1-.12-.12s0-.08,0-.07,1.1.39,2.49.85A13.75,13.75,0,0,1,171.4,149.32Z" fill="#8e4842"/><path d="M179,140.58c0,.09-1.75-.26-3.89-.61s-3.89-.58-3.88-.67a17.83,17.83,0,0,1,3.93.36A18.32,18.32,0,0,1,179,140.58Z" fill="#8e4842"/><path d="M181.17,136c-.06.07-.76-.42-1.74-.77s-1.83-.44-1.83-.53a4.37,4.37,0,0,1,3.57,1.3Z" fill="#8e4842"/><path d="M188.88,120.74a1.54,1.54,0,0,1-.32,0l-.93-.12c-.8-.1-2-.25-3.39-.41-2.87-.33-6.85-.68-11.26-.78a6.13,6.13,0,0,0-3.08.36,11.4,11.4,0,0,0-1.26.83l-1.2.85-4.15,2.93-2.81,2-.78.52a1.11,1.11,0,0,1-.28.16,1.58,1.58,0,0,1,.25-.21l.74-.57,2.76-2,4.11-3,1.19-.86a11.12,11.12,0,0,1,1.29-.86,3.79,3.79,0,0,1,1.59-.41c.55,0,1.09,0,1.64,0a105.65,105.65,0,0,1,11.27.87c1.44.19,2.59.37,3.39.51l.92.18A1.11,1.11,0,0,1,188.88,120.74Z" fill="#263238"/><path d="M178.07,122.28a.84.84,0,0,0-.83-.32h0l-.14,0h0a1.18,1.18,0,0,0-.68.38.72.72,0,0,0,0,.91.89.89,0,0,0,.49.23,1.26,1.26,0,0,0,1-.25A.84.84,0,0,0,178.07,122.28Z" fill="#fff"/><path d="M138.7,26.11l-1.92-1a4,4,0,0,0-2.93-.68c-.95.27-1.61,1.18-2.59,1.28-1.14.12-2.08-.9-3.22-.85s-1.93,1-3,1c-.8,0-1.65-.56-2.34-.18-.14.08-.26.2-.39.29a2.87,2.87,0,0,1-2.66-.15,3.68,3.68,0,0,0-2.66-.47,4.36,4.36,0,0,0-1.38,1.11,1.91,1.91,0,0,1-1.61.67c-.33-.07-.6-.28-.93-.36-1-.26-1.9.84-2.94,1.11s-2.1-.21-3,.23a1.52,1.52,0,0,0-.74,1.88,2.35,2.35,0,0,0,1.74,1.31,4.83,4.83,0,0,0,2.35-.18,6.25,6.25,0,0,1,1.89-.43c1.49.05,2.66,1.6,4.12,1.28a5.29,5.29,0,0,0,1.8-1.14,5,5,0,0,1,2.9-.94,5.4,5.4,0,0,0,2-.12c.79-.31,1.24-1.14,2.06-1.37s1.76.31,2.67.23c.59-.05,1.14-.38,1.74-.41.85-.05,1.62.5,2.47.43s1.6-.79,2.47-.72a7,7,0,0,1,1,.26,1.07,1.07,0,0,0,1-.14c.19-.18.25-.47.48-.6a1,1,0,0,1,.58-.06l2.82.28Z" fill="#263238"/><path d="M141.73,26c-.95-.69-2.22-1.42-3.29-.84-.39.21-.68.57-1.08.76-.89.42-2-.14-2.93.13s-1.35,1-2.1,1.35c-1.21.6-3,.24-3.74,1.31-.41.58-.48,1.51-1.2,1.66a1.6,1.6,0,0,1-.75-.08,6,6,0,0,0-2.64-.08,2.81,2.81,0,0,0-1.37.58c-.72.65-.74,1.76-1.43,2.44-1,1-2.87.52-4.19,1.18a7.81,7.81,0,0,0-1.61,1.32,17.79,17.79,0,0,1-3.4,2.08,7.38,7.38,0,0,0-3,2.53,2.68,2.68,0,0,0,.38,3.43,1.37,1.37,0,0,0,1.69.08c.15-.15.25-.34.39-.5a3,3,0,0,1,1.17-.59c.41-.17.84-.48.84-.89s-.15-.57.06-.75a.55.55,0,0,1,.31-.1c1.06-.11,2.36-.06,2.93-.93a6,6,0,0,0,.43-1.26,2.38,2.38,0,0,1,1.67-1.42c.64-.15,1.38-.05,1.9-.45s.61-1.31,1.14-1.81c.89-.84,2.65-.23,3.45-1.14.2-.23.31-.53.56-.69.72-.48,1.59.49,2.44.33s1-1,1.51-1.47,1.65-.74,2.47-1.14c1-.51,1.81-1.5,2.92-1.83,1-.29,2.14-.09,2.85-.77.27-.26.46-.64.83-.75a1.47,1.47,0,0,1,.66,0,5,5,0,0,0,3.17-.65Z" fill="#263238"/><path d="M140.11,28.55a8.06,8.06,0,0,0-6.78,2,5.31,5.31,0,0,1-1.28,1.05,7,7,0,0,1-2.5.29,4.9,4.9,0,0,0-4.13,3.34c-.38,1.15-.52,2.65-1.63,3.06a3.39,3.39,0,0,0-.61.21c-.74.47-.23,1.65-.24,2.56,0,1.5-1.68,2.53-1.74,4a3.92,3.92,0,0,0,.39,1.6q.87,2.13,1.91,4.19c.31.62.72,1.3,1.38,1.39,1,.13,1.54-1,1.82-2a2.88,2.88,0,0,0,.06-2.08c-.28-.53-.85-.84-1.1-1.39-.39-.88.24-1.84.69-2.68a8,8,0,0,0,.77-5.5c1-.19,1.53-1.62,2.57-1.81a5.06,5.06,0,0,0,.87-.12c.69-.27.77-1.32,1.38-1.76s2-.1,2.34-.94c.1-.27.05-.59.21-.82a.94.94,0,0,1,.56-.28l2.52-.63a2.82,2.82,0,0,0,1.34-.6c.65-.61.75-1.8,1.57-2.12Z" fill="#263238"/><path d="M142.78,23.55c-.1-1.48-.38-3.26-1.69-3.86-.77-.36-1.71-.18-2.47-.56-1.46-.74-1.58-3.1-3-3.85s-3.32.41-4.46-.68c-.59-.57-.67-1.52-1.15-2.19a3.34,3.34,0,0,0-2.57-1.1,8.09,8.09,0,0,1-2.82-.39c-1.5-.65-2.46-2.52-4.07-2.64-1.37-.1-2.44,1.1-3.3,2.2a2.06,2.06,0,0,0-.49.92,1.61,1.61,0,0,0,.89,1.51c1.08.64,2.49.54,3.5,1.29a10,10,0,0,0,1.09.88c.58.31,1.3.24,1.87.59,1.09.66,1.07,2.49,2.15,3.18s2.37-.13,3.55.15c1.6.38,2.48,2.61,4.12,2.67a18.42,18.42,0,0,0,2.12-.48,2.38,2.38,0,0,1,2.27,1.34c.26.57.3,1.23.61,1.77a2.6,2.6,0,0,0,1.89,1.19,7.48,7.48,0,0,0,2.26-.13Z" fill="#263238"/><path d="M141.54,28.16c-1-1.89-2.23-3.92-4.28-4.79a28.44,28.44,0,0,1-3.18-1.11c-.82-.48-1.4-1.25-2.17-1.8-1.79-1.28-4.26-1.19-6.46-.84s-4.47.9-6.63.37c-1.94-.48-3.63-1.8-5.62-1.91a9.68,9.68,0,0,0-3.19.55l-3.62,1.05a1.64,1.64,0,0,0-1,.6c-.39.65.37,1.39,1.09,1.7a6.64,6.64,0,0,0,3.74.4,8.91,8.91,0,0,1,3-.45,19.67,19.67,0,0,1,2,.64,7.27,7.27,0,0,0,2.59,0l4-.41a5.71,5.71,0,0,1,3,.25c.72.35,1.29,1,2.09,1.11s1.74-.57,2.63-.43c1.06.16,1.59,1.35,2.56,1.8,1.14.53,2.64-.09,3.74.52.75.41,1.07,1.25,1.55,1.93a4.87,4.87,0,0,0,1.53,1.43,10.82,10.82,0,0,0,2.57.94Z" fill="#263238"/><path d="M143.66,19.76c-.48-.66-1.21-1.34-1-2.13.1-.39.42-.71.49-1.11.12-.73-.61-1.29-.88-2s0-1.79-.46-2.54-1.52-.88-2.4-1.11a3,3,0,0,1-2.24-1.74,10.4,10.4,0,0,1-.12-2A3.78,3.78,0,0,0,133.42,4a4,4,0,0,1-1.51-.18c-.84-.39-1-1.49-1.52-2.29A3.16,3.16,0,0,0,127.12.06c-.6.12-1.26.74-.91,1.24.14.21.4.29.59.45.68.57.19,1.74.59,2.54s1.68,1,2.07,1.84c.3.65-.05,1.46.23,2.11.35.82,1.4,1,2.28,1s1.93.24,2.26,1.06a5.41,5.41,0,0,1,.17,1.14,2.19,2.19,0,0,0,1.15,1.58c.85.44,2,.36,2.55,1.17s-.25,2.2.26,3.14c.37.7,1.26.88,1.93,1.3a.78.78,0,0,1,.35.39.88.88,0,0,1-.12.54c-.53,1.07-1.2,2.31-.69,3.4a4.26,4.26,0,0,0,.92,1.11,9.5,9.5,0,0,1,2.32,4L144,24A4.17,4.17,0,0,0,143.66,19.76Z" fill="#263238"/><path d="M148.82,6a2.73,2.73,0,0,0-1.18-3.15,2.15,2.15,0,0,0-3,1.12c-.4,1.34.72,2.9,0,4.1a3.84,3.84,0,0,0-.61.95c-.25.88.85,1.62.86,2.54s-1.27,1.57-1.53,2.54c-.31,1.13.83,2.32.42,3.41a4.25,4.25,0,0,1-.53.82c-1.17,1.72-.57,4,.07,6l2.65-.39c-.49-1.84,2.1-3.68,1.22-5.36-.42-.81-1.57-1.38-1.31-2.25a1.71,1.71,0,0,1,.4-.6l2.47-2.7a2.56,2.56,0,0,0,.79-1.37c.11-1.18-1.36-1.94-1.54-3.1C147.9,7.65,148.55,6.85,148.82,6Z" fill="#263238"/><path d="M149.73,21c-.25-.87-1.38-1.14-2.28-1-2.45.38-4.25,2.43-5.82,4.36a53,53,0,0,0-4.87,6.6,4.57,4.57,0,0,0-.67,1.69,1.71,1.71,0,0,0,.62,1.62,1.08,1.08,0,0,0,1.55-.36l.73-.18a35.57,35.57,0,0,1,9.34-10.43C149.1,22.73,150,21.92,149.73,21Z" fill="#ff725e"/><path d="M136.2,58.64A85.75,85.75,0,0,1,135.29,44a29.81,29.81,0,0,1,3.92-14c.39-.63,3.45-4.8,4.16-4.58.51.15-1.66,4.17-1.48,4.67,1.66,4.79,1.33,10.09,0,15a65.94,65.94,0,0,1-5.66,13.62" fill="#263238"/><path d="M158,90.58c.7-3.39,1.26-6.07,1.29-6.06s11.89,1.09,14.91-10.31c1.46-5.51,3.53-17.11,5.29-27.62a22,22,0,0,0-16.32-24.94l-1.11-.28c-12.08-2.3-20.78,6.68-22.74,18.82L131.1,82.43,150,102.16Z" fill="#b2655f"/><path d="M159.28,84.52a28.49,28.49,0,0,1-13.79-8.15S147,85.6,158.7,87.44Z" fill="#8e4842"/><path d="M173.64,55.67a1.68,1.68,0,0,1-2,1.25A1.6,1.6,0,0,1,170.34,55a1.7,1.7,0,0,1,2-1.26A1.61,1.61,0,0,1,173.64,55.67Z" fill="#263238"/><path d="M175.84,50.73c-.25.16-1.26-1.07-3-1.51s-3.27.12-3.41-.14.24-.45.9-.72a4.63,4.63,0,0,1,2.8-.15,4.43,4.43,0,0,1,2.33,1.46C175.88,50.23,176,50.66,175.84,50.73Z" fill="#263238"/><path d="M157.69,52.61a1.69,1.69,0,0,1-2,1.25A1.6,1.6,0,0,1,154.39,52a1.68,1.68,0,0,1,2-1.26A1.61,1.61,0,0,1,157.69,52.61Z" fill="#263238"/><path d="M158.44,47.11c-.26.16-1.27-1.07-3-1.5s-3.27.11-3.41-.15.23-.45.9-.72a4.6,4.6,0,0,1,2.79-.15A4.51,4.51,0,0,1,158,46.06C158.48,46.61,158.56,47,158.44,47.11Z" fill="#263238"/><path d="M161.35,62.21a11.41,11.41,0,0,1,3,.2c.46.07.91.08,1.06-.2a2.33,2.33,0,0,0,0-1.41c-.15-1.19-.3-2.44-.47-3.75-.62-5.33-.94-9.67-.73-9.7s.89,4.28,1.51,9.61c.14,1.32.28,2.57.41,3.76a2.7,2.7,0,0,1-.21,1.83,1.2,1.2,0,0,1-.9.47,3.51,3.51,0,0,1-.79-.09A11.88,11.88,0,0,1,161.35,62.21Z" fill="#263238"/><path d="M155.87,62.12c.29.06-.19,2,1.11,3.73s3.38,2.07,3.32,2.34-.54.26-1.41.06a4.87,4.87,0,0,1-2.8-1.84,4.28,4.28,0,0,1-.81-3.1C155.41,62.5,155.74,62.08,155.87,62.12Z" fill="#263238"/><path d="M160.14,40c-.3.43-2-.23-4.12-.5s-3.94-.13-4.1-.63c-.07-.23.33-.61,1.12-.91a7.23,7.23,0,0,1,6.26.86C160,39.27,160.27,39.74,160.14,40Z" fill="#263238"/><path d="M176.59,44.7c-.41.32-1.52-.4-3-.78s-2.76-.41-2.94-.9c-.07-.23.22-.59.86-.83a4.45,4.45,0,0,1,4.75,1.36C176.71,44.09,176.77,44.54,176.59,44.7Z" fill="#263238"/><path d="M138.12,48.9c-.18-.14-7.28-4.31-9,3.58s6.56,8,6.62,7.76S138.12,48.9,138.12,48.9Z" fill="#b2655f"/><path d="M134,56.73s-.16.06-.41.12a1.46,1.46,0,0,1-1-.2c-.76-.49-1.18-2-.9-3.39a4.51,4.51,0,0,1,.81-1.89,1.65,1.65,0,0,1,1.26-.83.72.72,0,0,1,.73.56c.06.24,0,.39,0,.41s.2-.1.21-.44a.91.91,0,0,0-.2-.56,1.09,1.09,0,0,0-.72-.36,2,2,0,0,0-1.7.91,4.8,4.8,0,0,0-1,2.09c-.29,1.6.2,3.27,1.27,3.84a1.5,1.5,0,0,0,1.3.07C133.92,56.92,134,56.75,134,56.73Z" fill="#8e4842"/><path d="M177.1,32.44c1.43-.44-1.55-5.38-4.39-7.46-4.3-3.15-11.28-6-15.92-5.66-5.58.4-10.51,2.11-14.15,6.36a31.71,31.71,0,0,0-6.8,15.14,9.6,9.6,0,0,0,.11,5c.74,2,2.62,3.52,2,5.91a3.38,3.38,0,0,0,.32,2.59c1.12,1.84,3.19.76,4.31-.52,2.38-2.73,3.34-6.39,4.23-9.9a23.34,23.34,0,0,0,1.07-7.62c-.11-1.4-.47-2.77-.51-4.17a4.88,4.88,0,0,1,1.39-3.83,4.43,4.43,0,0,1,.77-.51,8.42,8.42,0,0,1,8.5.14c4.12,2.51,11.23,6.44,13.53,5.34,3.31-1.57,4.28-2.85,4.28-2.85Z" fill="#263238"/><path d="M93,167a4.1,4.1,0,0,1,.64-.28l1.87-.72,7.06-2.64,24.44-9-.14.33-6.54-14.18c-1.15-2.5-2.28-5-3.37-7.35l.27.15L92.77,137h0a49.57,49.57,0,0,0-12.65,5.55c-1.4.87-2.45,1.6-3.17,2.11l-.8.58a1,1,0,0,1-.29.18,1.55,1.55,0,0,1,.25-.23l.77-.63c.69-.53,1.73-1.3,3.12-2.2a48.2,48.2,0,0,1,12.66-5.75h0l24.47-3.82.19,0,.08.18,3.39,7.35c2.28,5,4.49,9.77,6.51,14.19l.11.24-.25.09L102.7,163.6l-7.1,2.51-1.9.64A3.29,3.29,0,0,1,93,167Z" fill="#263238"/><path d="M107.68,122a18.57,18.57,0,0,1-2,2.46c-1.3,1.47-3.12,3.47-5.19,5.64s-4,4.08-5.46,5.39a15.41,15.41,0,0,1-1.81,1.47c-.25.14-.42.28-.64.23a.14.14,0,0,1,0-.19s0-.05,0-.05,0,.13.06.15a1.41,1.41,0,0,0,.48-.3c.41-.34,1-.89,1.68-1.58,1.39-1.37,3.27-3.32,5.33-5.48l5.3-5.53A19.39,19.39,0,0,1,107.68,122Z" fill="#263238"/><path d="M112.44,112.14c-.11,0,.21-1.57.21-4.1a26.52,26.52,0,0,0-.38-4.41,29.27,29.27,0,0,0-1.43-5.22,29.82,29.82,0,0,0-2.43-4.83,28.17,28.17,0,0,0-2.68-3.52c-1.7-1.87-3-2.82-2.9-2.9a5,5,0,0,1,.92.63,9.63,9.63,0,0,1,1,.82c.37.35.82.72,1.25,1.2a24.57,24.57,0,0,1,2.81,3.51,25.85,25.85,0,0,1,3.94,10.24,24.42,24.42,0,0,1,.27,4.49,16.59,16.59,0,0,1-.13,1.72,9,9,0,0,1-.19,1.29A4.8,4.8,0,0,1,112.44,112.14Z" fill="#263238"/><path d="M138,186.71c0-.09,1.26,0,3.28,0a30.11,30.11,0,0,0,14.92-4.4c1.72-1,2.7-1.84,2.76-1.77s-.2.25-.63.62a18.48,18.48,0,0,1-1.93,1.46,26.71,26.71,0,0,1-15.12,4.46,18.51,18.51,0,0,1-2.41-.18A3.5,3.5,0,0,1,138,186.71Z" fill="#263238"/><path d="M152.8,164.62a3.88,3.88,0,0,1-.67.86c-.45.53-1.13,1.27-2,2.18-1.72,1.81-4.16,4.23-7,6.77s-5.52,4.7-7.5,6.21c-1,.75-1.81,1.35-2.39,1.74a4.5,4.5,0,0,1-.92.57,4.07,4.07,0,0,1,.8-.73l2.28-1.87c1.92-1.57,4.56-3.78,7.39-6.31s5.3-4.9,7.08-6.64l2.1-2.06A4.23,4.23,0,0,1,152.8,164.62Z" fill="#263238"/></g></g></svg>