<svg xmlns="http://www.w3.org/2000/svg" viewBox="0 0 249.51 336.5"><title>two</title><g id="Layer_2" data-name="Layer 2"><g id="Character"><polygon points="41.14 291.24 34.18 336.5 42.14 336.5 55.56 291.24 41.14 291.24" fill="#263238"/><polygon points="213.92 291.24 220.88 336.5 212.93 336.5 199.5 291.24 213.92 291.24" fill="#263238"/><path d="M5,171.19c-.56,20.42-5.85,110.5,12.62,127.65H40.52c6,0,5.66-2.83,5.44-8.8L41.59,173.16A10.41,10.41,0,0,0,39.32,167c-3-3.72-9.07-9.47-17.38-8.91a24.61,24.61,0,0,0-12.55,4.16A11,11,0,0,0,5,171.19Z" fill="#455a64"/><polygon points="212.88 300.15 40.52 298.84 40.52 245.59 212.88 245.59 212.88 300.15" fill="#455a64"/><polygon points="212.2 245.59 39.53 247.01 39.53 215.06 212.88 211.82 212.2 245.59" fill="#455a64"/><path d="M8.23,165.2s1.28-44.34,50.08-46.63,121.21,0,121.21,0,61.3-2.3,62.72,36.31l-12.18,74H40.79Z" fill="#455a64"/><path d="M249.49,175.9c-1.29,30.56-4.11,120.2-25.37,124.25H208.31l4.89-130.94s7.33-12.78,19.54-12l.37,0A17.89,17.89,0,0,1,249.49,175.9Z" fill="#455a64"/><path d="M240.78,159.11l-.57-.14-1.65-.45-1.21-.33-1.5-.23c-.54-.07-1.12-.18-1.74-.25l-2,0a21.53,21.53,0,0,0-9.8,2.45l-.67.33-.65.4-1.32.83a29.46,29.46,0,0,0-2.54,2,26.66,26.66,0,0,0-4.6,5.33l0-.09c-.63,13.52-1.44,30.62-2.31,49.16-1,22.57-1.73,43-2.14,57.81-.18,7.39-.33,13.37-.44,17.53,0,2-.09,3.65-.11,4.77,0,.53,0,.94,0,1.24l0,.42a3.33,3.33,0,0,1,0-.42c0-.3,0-.72,0-1.24,0-1.12,0-2.72,0-4.77,0-4.14.13-10.13.28-17.53.33-14.81,1-35.26,2-57.83.83-18.55,1.7-35.65,2.4-49.16h0a.13.13,0,0,1,0-.08,26.55,26.55,0,0,1,4.69-5.38,28.34,28.34,0,0,1,2.59-2l1.34-.84.66-.4.68-.33a21.66,21.66,0,0,1,9.94-2.4l2,.07c.62.07,1.2.19,1.75.27l1.5.25,1.21.36,1.63.51Z" fill="#263238"/><path d="M40.79,246.87l.86,0,2.53,0,9.7,0,35.71.09c30.15.11,71.8.44,117.79-.22l1.91,0-.25.23c.17-5.46.33-10.86.49-16.17q.12-4,.24-7.92l.12-3.91c0-.64.06-1.31,0-1.92a4.05,4.05,0,0,0-.5-1.76,4.43,4.43,0,0,0-2.92-2.15,8.13,8.13,0,0,0-1.93-.11h-2l-7.82,0-15.14.1-52.35.54c-14.89.15-26.93.21-35.25.22l-9.57,0-2.49,0c-.56,0-.85,0-.85,0l.85,0,2.49,0,9.57-.07,35.25-.37,52.34-.65,15.15-.11,7.82,0h2a8.35,8.35,0,0,1,2,.12,4.88,4.88,0,0,1,3.23,2.39,4.31,4.31,0,0,1,.56,1.94c0,.69,0,1.31,0,2,0,1.29-.07,2.6-.11,3.91q-.12,3.91-.24,7.91-.24,8-.48,16.18a.25.25,0,0,1-.25.22l-1.9,0c-46,.66-87.65.28-117.8.08L53.88,247l-9.7-.07-2.53,0Z" fill="#263238"/><g opacity="0.2"><path d="M39.53,247c39.56,8.58,58.4,7.93,95.18,8.56,33,.57,69.33-5.38,74.58-8.92Z"/></g><path d="M40.52,298.84s0-.15,0-.44,0-.75,0-1.3c0-1.16,0-2.84,0-5,0-4.36.09-10.61.16-18.33.19-15.5.44-36.87.72-60.47.17-11.81.32-23.06.46-33.29a22.32,22.32,0,0,0-1-7.31,21.72,21.72,0,0,0-3.18-6.17,22.33,22.33,0,0,0-4.68-4.5,21,21,0,0,0-5.38-2.64A20,20,0,0,0,17.43,159a19.64,19.64,0,0,0-7.14,3.1,15.94,15.94,0,0,0-3.52,3.45c-.69.91-1,1.45-1,1.43a1.85,1.85,0,0,1,.21-.39,9.47,9.47,0,0,1,.69-1.1,15.33,15.33,0,0,1,3.5-3.56,19.37,19.37,0,0,1,7.19-3.21,20.16,20.16,0,0,1,10.4.34,21.57,21.57,0,0,1,5.5,2.66,22.72,22.72,0,0,1,4.8,4.57,22.36,22.36,0,0,1,3.27,6.29,22.75,22.75,0,0,1,1,7.45c-.12,10.24-.27,21.49-.42,33.3-.34,23.6-.65,45-.87,60.46-.14,7.72-.25,14-.33,18.33-.05,2.14-.08,3.82-.11,5,0,.55,0,1,0,1.3A3,3,0,0,1,40.52,298.84Z" fill="#263238"/><path d="M137.5,205.11a392.89,392.89,0,0,1,6.09-62.55c.56-3.15,1.3-6.54,3.74-8.6,2.1-1.78,5-2.17,7.74-2.39,19.65-1.6,39.68,7.17,57.52,16.67A10.5,10.5,0,0,1,218,159.31c-3,17.1-9,30-17.83,46.33a108.54,108.54,0,0,1-63.25,5.6" fill="#ff725e"/><path d="M102.28,50.59c-1.24-8.81-1.16-8.52-2.26-17C97.9,17.28,92.74-1.27,69.39.07c0,0-17.59,1-23,13.56C43.55,20.41,42.8,43.87,41.82,65a3.91,3.91,0,0,1-.19,1l-1.1,3.19a47.7,47.7,0,0,0-2.51,13L36.5,111.45A3.65,3.65,0,0,0,40,115.28c7.88.38,25.85-.62,29.31-1.87a52.74,52.74,0,0,0,31.16-30.8c.36-1,5.46-1.44,6.41-1.8C108.41,80.2,102.52,52.27,102.28,50.59Z" fill="#263238"/><path d="M64.89,7.62l1.48-1.37,15.69,6.58a4.4,4.4,0,0,1,4.1,4.32L85.3,68.54c0,3.49,1,7.52-1.18,10.27L81.6,82.37c-5.14,6.6-17,4.21-20.89-3.19a5.74,5.74,0,0,1-.54-1.34A10,10,0,0,1,60,76.69c-.41-4.14-.39-7.73-.39-7.73-.22-4.54-.28-6.41-.28-6.36s-9.65-1.25-12.09-13.69c-1.21-6.18-.85-14.67-.37-23C47.49,14.35,55.6,7.48,64.89,7.62Z" fill="#ffbf9d"/><path d="M67.36,34.28A1.6,1.6,0,0,0,69,35.84a1.53,1.53,0,0,0,1.6-1.5A1.61,1.61,0,0,0,69,32.77,1.55,1.55,0,0,0,67.36,34.28Z" fill="#263238"/><path d="M51.24,34.42A1.6,1.6,0,0,0,52.85,36a1.53,1.53,0,0,0,1.6-1.5,1.61,1.61,0,0,0-1.6-1.57A1.55,1.55,0,0,0,51.24,34.42Z" fill="#263238"/><path d="M48.43,29.22c.2.21,1.39-.74,3.11-.79s3,.76,3.21.54-.13-.47-.7-.85a4.37,4.37,0,0,0-2.57-.69,4.19,4.19,0,0,0-2.47.89C48.49,28.75,48.33,29.13,48.43,29.22Z" fill="#263238"/><path d="M65.93,29.65c.23.18,1.31-.88,3-1.12s3.09.45,3.24.21-.17-.45-.78-.77a4.42,4.42,0,0,0-2.63-.43,4.29,4.29,0,0,0-2.36,1.15C66,29.17,65.82,29.57,65.93,29.65Z" fill="#263238"/><path d="M59.73,42.12a11.63,11.63,0,0,0-2.82-.4c-.44,0-.87-.1-.95-.4A2.18,2.18,0,0,1,56.21,40c.37-1.08.77-2.22,1.18-3.4C59,31.75,60.2,27.77,60,27.71s-1.68,3.81-3.32,8.66l-1.13,3.42a2.54,2.54,0,0,0-.16,1.74,1.09,1.09,0,0,0,.75.61,2.59,2.59,0,0,0,.75.08A11.13,11.13,0,0,0,59.73,42.12Z" fill="#263238"/><path d="M59.28,62.6a31.92,31.92,0,0,0,16.59-5.08s-3.9,8.81-16.46,8.1Z" fill="#ff9a6c"/><path d="M60.61,46.26A3.09,3.09,0,0,1,63.36,45a2.85,2.85,0,0,1,2,1A1.82,1.82,0,0,1,65.57,48a2.08,2.08,0,0,1-2.24.66,6.5,6.5,0,0,1-2.26-1.24,1.83,1.83,0,0,1-.51-.49.58.58,0,0,1,0-.64" fill="#ff9a6c"/><path d="M64.85,43.13c-.28,0-.21,1.87-1.77,3.26s-3.56,1.25-3.56,1.52c0,.11.46.34,1.3.34a4.71,4.71,0,0,0,3-1.16,4,4,0,0,0,1.36-2.73C65.21,43.57,65,43.12,64.85,43.13Z" fill="#263238"/><path d="M64.36,21.26c.23.44,1.91,0,4-.05s3.74.28,4-.17c.09-.22-.25-.62-1-1a6.87,6.87,0,0,0-6,.17C64.58,20.63,64.26,21.05,64.36,21.26Z" fill="#263238"/><path d="M48.78,21.82c.32.38,1.49-.07,2.92-.14s2.65.16,2.92-.26c.11-.2-.09-.59-.64-.94a4.25,4.25,0,0,0-4.7.32C48.79,21.22,48.64,21.63,48.78,21.82Z" fill="#263238"/><path d="M85.54,39.08S76.66,41.7,72,19.82c-1.6-7.48-8.43-13.61-8.43-13.61l2.82-.81S83.7,10.56,84,10.78s4.27,9.07,4.27,9.07Z" fill="#263238"/><path d="M83.37,38.23c0-.93,1-3.16,1.88-3.34,2.44-.47,6.88-.43,7.15,5.8.36,8.53-8.28,7.14-8.3,6.89S83.48,41.45,83.37,38.23Z" fill="#ffbf9d"/><path d="M86.57,44.24s.15.1.4.2a1.49,1.49,0,0,0,1.12,0c.88-.37,1.58-1.83,1.56-3.37a5,5,0,0,0-.51-2.11A1.72,1.72,0,0,0,88,37.85a.76.76,0,0,0-.86.44c-.1.24,0,.41-.08.43s-.19-.14-.14-.49a1,1,0,0,1,.31-.55,1.17,1.17,0,0,1,.82-.25,2.09,2.09,0,0,1,1.6,1.25A5,5,0,0,1,90.24,41c0,1.72-.79,3.37-2,3.77a1.58,1.58,0,0,1-1.37-.16C86.59,44.45,86.54,44.26,86.57,44.24Z" fill="#ff9a6c"/><path d="M79.6,34.82a11.12,11.12,0,0,1-1.27-.27,7.74,7.74,0,0,1-3-1.81,10.59,10.59,0,0,1-1.56-1.87,14.69,14.69,0,0,1-1.25-2.51,54.14,54.14,0,0,1-1.75-6.22c-.57-2.23-1.19-4.34-1.87-6.22a35.24,35.24,0,0,0-2.16-4.84,23.83,23.83,0,0,0-1.91-3c-.24-.35-.46-.59-.6-.77S64,7,64,7a1.93,1.93,0,0,0,.19.28c.12.18.33.44.56.79a28.85,28.85,0,0,1,1.84,3A36.75,36.75,0,0,1,68.69,16c.67,1.87,1.28,4,1.85,6.2a51.84,51.84,0,0,0,1.77,6.25A15,15,0,0,0,73.6,31a10.57,10.57,0,0,0,1.61,1.89,7.54,7.54,0,0,0,3.09,1.77A4.52,4.52,0,0,0,79.6,34.82Z" fill="#263238"/><path d="M105.25,80.72l-19-7.17-27-5.88L37.51,70.55c-4.6.1-12.54,9.74-18.6,20.08-5.42,9.26-9.69,18.57-9.69,18.57l25.31,9.46c1.44,10.77,3.56,25,5.39,30.61C43,158.86,44,172,44,172l60.15-7.84.85-41.29,19.77-2.58C124.73,118.86,117.14,84.39,105.25,80.72Z" fill="#ff725e"/><path d="M103.73,97.27a4.74,4.74,0,0,0,.11,1c.1.66.24,1.62.39,2.8a76.13,76.13,0,0,1,.58,9.32,75.44,75.44,0,0,1-.6,9.31c-.15,1.19-.29,2.15-.39,2.81a4.64,4.64,0,0,0-.11,1,5.89,5.89,0,0,0,.27-1c.16-.66.34-1.61.53-2.8a60.38,60.38,0,0,0,.74-9.35,60.84,60.84,0,0,0-.72-9.36c-.19-1.18-.37-2.14-.52-2.79A4.44,4.44,0,0,0,103.73,97.27Z" fill="#263238"/><path d="M124,120.9,104.43,123l.31,5.36-4.34-6.22-6.55,13.59s2.64,7.94,4.07,12.32c3.81,11.75,9.9,24.86,17,24,8.55-1,14.6-11.26,14.32-17.83C129,148.29,124,120.9,124,120.9Z" fill="#ffbf9d"/><polygon points="133.11 198.79 166.98 212.07 154.1 227.64 125.29 222.63 133.11 198.79" fill="#ffbf9d"/><path d="M44.06,171.32s-.89,38.63,2.65,45.35,37.78,7,37.78,7l54,2.74,6.3-25.26s-39.29-18.24-43-20.35S89.3,175,89.3,175L76.08,158Z" fill="#263238"/><path d="M106.48,224.09l-.42-.15-1.25-.36-4.62-1.28-15.53-4.12H84.6A23.46,23.46,0,0,1,82,218a20.22,20.22,0,0,1-4.9-1.15,23.31,23.31,0,0,1-4.24-2,23.89,23.89,0,0,1-9-9.6c-.29-.56-.47-1-.62-1.32a2.07,2.07,0,0,0-.24-.46,2.74,2.74,0,0,0,.16.49c.12.31.28.79.55,1.37a22.66,22.66,0,0,0,2.89,4.59,24.32,24.32,0,0,0,6.08,5.27,23.17,23.17,0,0,0,4.31,2,23.44,23.44,0,0,0,2.42.74,23.76,23.76,0,0,0,2.57.44,24.51,24.51,0,0,0,2.65.17h0l15.57,4,4.65,1.14L106,224A1.53,1.53,0,0,0,106.48,224.09Z" fill="#455a64"/><path d="M104.88,183.07l9.19-56.24s-1.21-40.48,21.52-37.58,20,38.52,20,38.52-2.94,48.83-4.55,55.88-2.42,14.89-7.06,17.71l-20.63-3.21Z" fill="#263238"/><path d="M122.6,99.49l-5.46,13.29,3.41,50.76s29.3,2.51,29,1.71S154.82,140,154.82,140s1.82-32.49-6.86-38.69S122.6,99.49,122.6,99.49Z" fill="#263238"/><path d="M121.69,163.63s.38,24.24.38,24.24l20.47,11.23,5.55-33.69Z" fill="#ffbf9d"/><polygon points="76.08 157.99 98.43 148.78 111.8 160.75 104.39 184.65 84.77 177.32 76.08 157.99" fill="#263238"/><path d="M143.54,201.13l-.27-.16c-.21-.1-.48-.23-.82-.41L139.29,199l-11.65-5.58-17.31-8.24-10.23-4.86-5.41-2.56-2.77-1.31-1.4-.66a9.29,9.29,0,0,0-1.44-.61A20.83,20.83,0,0,0,83,174a25,25,0,0,0-6,.38,30.36,30.36,0,0,0-10.54,4.15,33.88,33.88,0,0,0-7.75,6.73,46.69,46.69,0,0,0-5.09,7.35,67.7,67.7,0,0,0-5.12,11.87c-.48,1.45-.81,2.59-1,3.37l-.24.88a1.18,1.18,0,0,0-.06.3s0-.09.11-.29l.28-.87c.24-.77.6-1.89,1.1-3.33a70.07,70.07,0,0,1,5.23-11.78A47,47,0,0,1,59,185.46a33.59,33.59,0,0,1,7.69-6.63,30,30,0,0,1,10.4-4.07A23.75,23.75,0,0,1,83,174.4a20.2,20.2,0,0,1,6,1.21,9.74,9.74,0,0,1,1.42.6l1.4.66,2.77,1.31,5.41,2.55,10.23,4.83,17.35,8.15,11.71,5.47,3.19,1.46.84.37A1.77,1.77,0,0,0,143.54,201.13Z" fill="#455a64"/><path d="M101,181.37a23.71,23.71,0,0,1,.26-3.68,28.42,28.42,0,0,1,3.2-8.26,51.06,51.06,0,0,0,3.84-8.12,16.55,16.55,0,0,0,.64-2.65,3.44,3.44,0,0,0,.07-1c-.08,0-.22,1.41-1,3.56a62,62,0,0,1-3.94,8,26.64,26.64,0,0,0-3.12,8.41,12.34,12.34,0,0,0-.11,2.74A4.15,4.15,0,0,0,101,181.37Z" fill="#455a64"/><path d="M154.82,140l-.08.26-.19.78q-.26,1.08-.72,3c-.6,2.61-1.47,6.39-2.49,11.07-.5,2.34-1.06,4.9-1.59,7.67-.13.7-.27,1.39-.36,2.13a3,3,0,0,0,0,.32v.1s0,0,0-.09l0-.06s0,0-.05,0a4.17,4.17,0,0,1-.52.05h-1.11c-1.49,0-3-.11-4.61-.2-6.31-.38-13.25-.93-20.53-1.53l-2-.17.2.2c-1-14.11-1.85-26.78-2.49-36-.33-4.55-.6-8.24-.79-10.82-.1-1.25-.18-2.24-.24-2.93,0-.32,0-.57-.07-.77a1,1,0,0,0,0-.25.86.86,0,0,0,0,.26c0,.19,0,.44,0,.76,0,.7.09,1.69.15,2.94.16,2.58.39,6.27.66,10.84.6,9.18,1.43,21.86,2.35,36v.19h.19l2,.17c7.28.61,14.22,1.14,20.55,1.5,1.58.08,3.12.16,4.63.18h1.13c.19,0,.37,0,.57-.06a.71.71,0,0,0,.21-.08.22.22,0,0,0,.08-.11.21.21,0,0,0,0-.11s-.13,0,0,0v0a2.11,2.11,0,0,1,0-.23c.08-.7.22-1.41.34-2.1.52-2.77,1.06-5.33,1.54-7.68,1-4.66,1.8-8.44,2.36-11.09l.63-3c.06-.33.12-.59.16-.79A.91.91,0,0,0,154.82,140Z" fill="#455a64"/><path d="M127.84,95.66a3.45,3.45,0,0,0-.65.56,22.87,22.87,0,0,0-1.61,1.71,33.34,33.34,0,0,0-7.11,13.64,21.34,21.34,0,0,0-.47,2.3,3.07,3.07,0,0,0-.09.86c.08,0,.31-1.19.86-3.08a38.62,38.62,0,0,1,2.85-7.11,39.51,39.51,0,0,1,4.19-6.42C127,96.59,127.9,95.71,127.84,95.66Z" fill="#455a64"/><path d="M94.38,175a2.81,2.81,0,0,0-.14-.81c-.12-.51-.32-1.25-.6-2.15a44.81,44.81,0,0,0-2.8-6.83A46,46,0,0,0,87,158.89c-.57-.75-1-1.35-1.4-1.74a2.82,2.82,0,0,0-.57-.59s.66,1,1.71,2.51a57.26,57.26,0,0,1,3.75,6.29,57.85,57.85,0,0,1,2.9,6.73C94,173.85,94.31,175,94.38,175Z" fill="#455a64"/><path d="M57.62,172c-.07,0-.36.85-1,2.19a26.36,26.36,0,0,1-3,4.92,25.56,25.56,0,0,1-4,4.12c-1.15.93-1.92,1.44-1.88,1.5s.22-.08.59-.28a15.33,15.33,0,0,0,1.47-1A21.58,21.58,0,0,0,54,179.4a21.92,21.92,0,0,0,2.9-5.07,15.15,15.15,0,0,0,.57-1.67C57.61,172.25,57.65,172,57.62,172Z" fill="#455a64"/><path d="M166.48,228c12.62-.64,15.8-.24,28.42-.88,3.08-.16,14.29.23,16.86-1.47,2.35-1.54,5.36-3,6-5.73,1-4.62-.25-9.85-4.5-12.74a10.2,10.2,0,0,0-5-1.7c-7.45-.59-14.26,4.85-21.71,3.23-2-.43-3.82-1.55-5.82-2a12.78,12.78,0,0,0-8.73,1.4c-2.67,1.38-3.29,1.61-3.29,1.61l-13.26-4.49-4.14,23.19Z" fill="#fafafa"/><path d="M155.24,199.74l7,2.28a2.18,2.18,0,0,1,1.46,2.54l-5.39,24.87a2.19,2.19,0,0,1-2.39,1.71l-7.08-.79a2.18,2.18,0,0,1-1.9-2.62l5.51-26.36A2.19,2.19,0,0,1,155.24,199.74Z" fill="#fafafa"/><path d="M158.12,230.4a23.72,23.72,0,0,0,1.29-3.73c.71-2.33,1.6-5.57,2.4-9.21s1.33-7,1.62-9.38c.14-1.21.24-2.2.28-2.88a4,4,0,0,0,0-1.06A29.48,29.48,0,0,0,163,208c-.39,2.39-1,5.7-1.78,9.31s-1.63,6.87-2.23,9.23A29,29,0,0,0,158.12,230.4Z" fill="#263238"/><path d="M162.49,207.73a11.1,11.1,0,0,0-11-1.75c0,.19,2.56-.54,5.65,0S162.4,207.89,162.49,207.73Z" fill="#263238"/><path d="M161.66,217.11a24.66,24.66,0,0,0-5.86-1.84,24.32,24.32,0,0,0-6.08-.93,45.9,45.9,0,0,0,5.94,1.51C159,216.61,161.62,217.28,161.66,217.11Z" fill="#263238"/><path d="M158.48,226.84c0-.19-2.71.13-5.69-1.14s-4.7-3.37-4.83-3.24.28.64,1,1.43a11,11,0,0,0,3.55,2.37,10.85,10.85,0,0,0,4.18.84A3.69,3.69,0,0,0,158.48,226.84Z" fill="#263238"/><polygon points="121.16 180.12 121.69 190.6 142.61 200.64 146.09 183.14 121.16 180.12" fill="#fafafa"/><path d="M149.55,177l-1.57,7.3a2.23,2.23,0,0,1-2.42,1.75l-25.76-2.83a2.23,2.23,0,0,1-2-2.23l0-7.27a2.24,2.24,0,0,1,2.46-2.2l27.28,2.79A2.23,2.23,0,0,1,149.55,177Z" fill="#fafafa"/><path d="M118.8,183.15a23.36,23.36,0,0,0,3.91.92c2.44.46,5.82,1,9.59,1.45s7.19.61,9.68.65c1.24,0,2.24,0,2.94,0A3.72,3.72,0,0,0,146,186a31.35,31.35,0,0,0-4-.3c-2.47-.15-5.87-.4-9.62-.82s-7.14-.92-9.59-1.28A30.43,30.43,0,0,0,118.8,183.15Z" fill="#263238"/><path d="M142.23,185.18a9.53,9.53,0,0,0,1.83-5.59c.2-3.36-1.11-5.85-1.23-5.76s.82,2.53.63,5.72S142.05,185.1,142.23,185.18Z" fill="#263238"/><path d="M132.63,185.34c.17,0,.83-2.71,1.25-6.14s.47-6.25.3-6.26-.47,2.77-.9,6.18A48.12,48.12,0,0,0,132.63,185.34Z" fill="#263238"/><path d="M122.44,183.15c.19,0-.42-2.74.55-5.9s2.92-5.11,2.77-5.23-.61.35-1.33,1.21A11.32,11.32,0,0,0,122,181.4,3.9,3.9,0,0,0,122.44,183.15Z" fill="#263238"/><path d="M74.6,103.18s10.68,1.51,11.36,2.17,14.44,16.8,14.44,16.8l-6.55,13.59-12.13-6.25a19,19,0,0,0-3.84-1.15s-12.14-1.65-12.95-3.09-.38-1.79.52-2,8.14.43,9.76.69a24.79,24.79,0,0,0,4.82-.1s-5-1.07-6.19-1.44-12.46-2.65-12.32-4.68,1.52-2.78,8.61-1a50.32,50.32,0,0,0,11.92,1.66l-15.69-5.11S60,111.34,62,109.5s15.5,1.58,15.5,1.58l6,2.12-1.76-3.55s-8.5-2.33-9.6-3.15c-1.36-1-1.57-2-.58-2.87S74.6,103.18,74.6,103.18Z" fill="#ffbf9d"/><path d="M38.11,86.17a6.17,6.17,0,0,1-.14,1.2c-.14.87-.32,1.95-.53,3.23-.46,2.73-1.06,6.51-1.6,10.69s-.93,8-1.19,10.75c-.12,1.29-.23,2.38-.31,3.26a6.49,6.49,0,0,1-.17,1.2,4.8,4.8,0,0,1,0-1.21c0-.78.06-1.9.14-3.28.17-2.77.5-6.59,1-10.78s1.2-8,1.75-10.69c.28-1.36.52-2.46.7-3.21A5.4,5.4,0,0,1,38.11,86.17Z" fill="#263238"/><path d="M108.77,87.22c0-.28-2.66-16.7-3.89-22.51l-19.56,3C85,70.1,85,78.57,85,81.42a12.69,12.69,0,0,0,2.69,8A7.68,7.68,0,0,0,95.36,92a10.43,10.43,0,0,0,6.41,4.3c2.61.4,5.57-1,6.4-3.45A13.93,13.93,0,0,0,108.77,87.22Z" fill="#263238"/><path d="M80.28,89.47l-3.12,29.88a1.88,1.88,0,0,1-2,1.68l-18.52-1.48a1.88,1.88,0,0,1-1.72-2l2.21-31.42a1.88,1.88,0,0,1,2.16-1.72l19.42,3A1.87,1.87,0,0,1,80.28,89.47Z" fill="#263238"/><path d="M64.65,99.42s-10.79-.27-11.57.27-17,14.21-17,14.21l4.24,14.48s11.65-3.74,13-4.18a19.6,19.6,0,0,1,4-.51s12.25.37,13.29-.92.66-1.7-.18-2.09-8.11-.91-9.75-.91a24.87,24.87,0,0,1-4.74-.89s5.16-.23,6.35-.41,12.72-.58,12.92-2.59-1-3-8.33-2.42a50.5,50.5,0,0,1-12-.32l16.32-2.47s6.54-.82,4.89-3-15.56-1-15.56-1l-6.25,1.11,2.32-3.22s8.76-.9,10-1.53c1.51-.78,1.88-1.7,1-2.74S64.65,99.42,64.65,99.42Z" fill="#ffbf9d"/><path d="M13.36,110.75l18.08,6.75L31.11,120l5.45-6.48,5,13s-8.41,16.53-10.23,20.77C26.11,159.58,16.84,166,10.2,163.27c-8-3.26-12.58-11.7-8.93-21.06C3.44,136.64,13.36,110.75,13.36,110.75Z" fill="#ffbf9d"/><path d="M36.08,113.9s.15-.15.44-.41l1.33-1.15L43,108l8.12-6.85,1.22-1c.2-.17.41-.35.64-.52a2.49,2.49,0,0,1,.85-.22c1.11-.12,2.25-.14,3.42-.16,2.35,0,4.82,0,7.42,0h0a5.78,5.78,0,0,1,2,.28,2.49,2.49,0,0,1,.9.52,2.28,2.28,0,0,1,.59.9,1.39,1.39,0,0,1-.1,1.11,2.47,2.47,0,0,1-.75.79,3.79,3.79,0,0,1-.95.52c-.35.1-.69.18-1,.25-2.77.53-5.69.86-8.7,1.19l.13-.08c-.71,1-1.51,2.1-2.31,3.22l-.19-.31,6.25-1.11h0c2.62-.2,5.32-.33,8.08-.32,1.37,0,2.77.06,4.18.22a13.23,13.23,0,0,1,2.11.39,3.57,3.57,0,0,1,1,.46,1.44,1.44,0,0,1,.65,1,1.31,1.31,0,0,1-.57,1.08,4.21,4.21,0,0,1-1,.55,12.87,12.87,0,0,1-2.11.65c-1.44.31-2.89.46-4.34.7l-8.84,1.34-4.8.72v-.42A52.7,52.7,0,0,0,66,113.3a47.52,47.52,0,0,1,5.46-.19,7.62,7.62,0,0,1,2.69.5,2,2,0,0,1,1.07,1,2.47,2.47,0,0,1,.15,1.42,1.09,1.09,0,0,1-.46.63,3.36,3.36,0,0,1-.61.34,8.87,8.87,0,0,1-1.26.42,25.5,25.5,0,0,1-2.55.5c-1.69.25-3.36.41-5,.54L63,118.6c-.79.06-1.61.18-2.4.22-1.6.1-3.16.18-4.7.24l0-.37a20.22,20.22,0,0,0,5.18.91c1.74.07,3.43.2,5.08.34.82.08,1.64.16,2.44.26.4,0,.8.1,1.2.17a4.26,4.26,0,0,1,.61.16,2.74,2.74,0,0,1,.54.32.88.88,0,0,1,.35.6,1.14,1.14,0,0,1-.14.64,3.46,3.46,0,0,1-.32.52l-.18.23a.92.92,0,0,1-.26.22,7,7,0,0,1-2.23.53,74.4,74.4,0,0,1-8.27.28l-1.87,0a13.29,13.29,0,0,0-1.79,0,12.85,12.85,0,0,0-3.26.54l-9.38,3-2.47.76-.64.19-.22.06.21-.08.63-.22,2.46-.82L53,124.2a21.45,21.45,0,0,1,7-.6,73.92,73.92,0,0,0,8.23-.32,6.72,6.72,0,0,0,2.11-.5.58.58,0,0,0,.17-.14l.17-.22a3.31,3.31,0,0,0,.29-.47c.16-.33.17-.64-.13-.84a2.16,2.16,0,0,0-.47-.28c-.16,0-.35-.09-.54-.13-.38-.07-.77-.12-1.17-.17q-1.2-.14-2.43-.24c-1.64-.14-3.33-.26-5.06-.33a20.58,20.58,0,0,1-5.27-.9.19.19,0,0,1-.13-.23.18.18,0,0,1,.17-.14h0c1.54-.07,3.1-.15,4.69-.26.8,0,1.57-.16,2.4-.23l2.45-.18c1.64-.14,3.31-.29,5-.55a23.49,23.49,0,0,0,2.5-.49,8,8,0,0,0,1.2-.4c.36-.16.78-.4.84-.68a2.13,2.13,0,0,0-.13-1.15A1.61,1.61,0,0,0,74,114a7.34,7.34,0,0,0-2.54-.46,47,47,0,0,0-5.41.2,51.87,51.87,0,0,1-11.24-.38.2.2,0,0,1-.18-.24.21.21,0,0,1,.18-.18h0l4.8-.73,8.84-1.34c1.45-.24,2.91-.39,4.31-.69a12.26,12.26,0,0,0,2-.62,4.27,4.27,0,0,0,.89-.5.87.87,0,0,0,.41-.71c-.06-.59-.71-.94-1.37-1.11a11.54,11.54,0,0,0-2-.38,41.16,41.16,0,0,0-4.14-.22c-2.74,0-5.43.11-8,.3h0L54.25,108a.2.2,0,0,1-.2-.31c.81-1.11,1.6-2.22,2.32-3.21a.18.18,0,0,1,.14-.08c3-.32,5.93-.65,8.67-1.16a9.55,9.55,0,0,0,1-.24,3.25,3.25,0,0,0,.86-.46c.54-.37,1-.94.73-1.51a1.93,1.93,0,0,0-1.28-1.21,5,5,0,0,0-1.83-.26h0c-2.59-.07-5.06-.1-7.4-.07-1.17,0-2.31,0-3.4.14a2.12,2.12,0,0,0-.72.17l-.63.5-1.22,1-8.18,6.79-5.18,4.3-1.35,1.11C36.25,113.78,36.08,113.9,36.08,113.9Z" fill="#ff9a6c"/><path d="M36.08,113.9c.11.09-5,6.53-11.36,14.37s-11.66,14.14-11.77,14,5-6.52,11.36-14.37S36,113.81,36.08,113.9Z" fill="#ff9a6c"/></g></g></svg>